<?xml version="1.0" encoding="UTF-8"?>
<svg width="407px" height="120px" viewBox="0 0 407 120" version="1.1" xmlns="http://www.w3.org/2000/svg" xmlns:xlink="http://www.w3.org/1999/xlink">
    <title>flagos 反白@1x</title>
    <g id="页面-1" stroke="none" stroke-width="1" fill="none" fill-rule="evenodd">
        <g id="画板" transform="translate(-173, -421)" fill="#FFFFFF" fill-rule="nonzero">
            <g id="flagos-反白" transform="translate(173.2404, 421.75)">
                <g id="_编组-7" transform="translate(-0, 0)">
                    <g id="_路径备份-3" transform="translate(0, 0)">
                        <polygon id="路径" points="0 15.35 18.32 15.35 60.32 15.35 60.32 0 0 0"></polygon>
                    </g>
                    <g id="_路径备份-2" transform="translate(0, 31.8)">
                        <path d="M0,58.29 L18.31,58.29 L18.31,23.35 C18.31,18.93 21.89,15.35 26.31,15.35 L60.32,15.35 L60.32,-7.10542736e-15 L18.31,-7.10542736e-15 C8.2,-7.10542736e-15 0,8.2 0,18.31 L0,58.29 L0,58.29 Z" id="路径"></path>
                    </g>
                </g>
                <g id="_路径备份-5" transform="translate(70.32, 0)">
                    <polygon id="路径" points="17.87 0 0 0 0 90 17.87 90"></polygon>
                </g>
                <g id="_编组-6" transform="translate(243.19, 0)">
                    <g id="_椭圆形">
                        <path d="M45,90 C20.19,90 0,69.81 0,45 C0,20.19 20.19,0 45,0 C69.81,0 90,20.19 90,45 C90,69.81 69.81,90 45,90 Z M45,18 C30.11,18 18,30.11 18,45 C18,59.89 30.11,72 45,72 C59.89,72 72,59.89 72,45 C72,30.11 59.89,18 45,18 Z" id="形状"></path>
                    </g>
                    <g id="_椭圆形-2" transform="translate(30, 30)">
                        <circle id="椭圆形" cx="15" cy="15" r="15"></circle>
                    </g>
                </g>
                <g id="_编组-10" transform="translate(98.19, 24)">
                    <g id="_椭圆形-3">
                        <path d="M29.5,66 C13.23,66 0,51.2 0,33 C0,14.8 13.23,0 29.5,0 C45.77,0 59,14.8 59,33 C59,51.2 45.77,66 29.5,66 Z M29.5,18 C23.27,18 18,24.87 18,33 C18,41.13 23.27,48 29.5,48 C35.73,48 41,41.13 41,33 C41,24.87 35.73,18 29.5,18 Z" id="形状"></path>
                    </g>
                    <g id="_路径备份-6" transform="translate(46, 0)">
                        <polygon id="路径" points="13 0 0 0 0 66 13 66"></polygon>
                    </g>
                </g>
                <g id="_编组-13" transform="translate(167.19, 10)">
                    <g id="_椭圆形-4" transform="translate(0, 14)">
                        <path d="M33,66 C14.8,66 0,51.2 0,33 C0,14.8 14.8,0 33,0 C51.2,0 66,14.8 66,33 C66,51.2 51.2,66 33,66 Z M33,18 C24.73,18 18,24.73 18,33 C18,41.27 24.73,48 33,48 C41.27,48 48,41.27 48,33 C48,24.73 41.27,18 33,18 Z" id="形状"></path>
                    </g>
                    <g id="_椭圆形-5" transform="translate(46.19, 0)">
                        <circle id="椭圆形" cx="9" cy="9" r="9"></circle>
                    </g>
                    <g id="_路径" transform="translate(3.8, 84.14)">
                        <path d="M29.7,25.01 C18.94,25.01 8.19,20.92 0,12.73 L12.73,-1.42108547e-14 C22.09,9.36 37.31,9.36 46.67,-1.42108547e-14 L59.4,12.73 C51.21,20.92 40.46,25.01 29.7,25.01 L29.7,25.01 Z" id="路径"></path>
                    </g>
                </g>
                <g id="_编组-8" transform="translate(339.19, 0)">
                    <g id="_路径-2" transform="translate(0, -0)">
                        <path d="M26.47,52.98 C11.87,52.98 0,41.1 0,26.49 C0,11.88 11.88,3.55271368e-15 26.47,3.55271368e-15 L59.47,3.55271368e-15 L59.47,16 L26.47,16 C20.7,16 16,20.71 16,26.49 C16,32.27 20.7,36.98 26.47,36.98 L26.47,52.98 Z" id="路径"></path>
                    </g>
                    <g id="_路径备份-4" transform="translate(8, 37.02)">
                        <path d="M33,52.98 L0,52.98 L0,36.98 L33,36.98 C38.77,36.98 43.47,32.27 43.47,26.49 C43.47,20.71 38.77,16 33,16 L18,16 L18,-7.10542736e-15 L33,-7.10542736e-15 C47.6,-7.10542736e-15 59.47,11.88 59.47,26.49 C59.47,41.1 47.59,52.98 33,52.98 Z" id="路径"></path>
                    </g>
                </g>
            </g>
        </g>
    </g>
</svg>