<?xml version="1.0" encoding="UTF-8"?>
<svg width="654px" height="126px" viewBox="0 0 654 126" version="1.1" xmlns="http://www.w3.org/2000/svg" xmlns:xlink="http://www.w3.org/1999/xlink">
    <title>白色@1x</title>
    <g id="页面-1" stroke="none" stroke-width="1" fill="none" fill-rule="evenodd">
        <g id="白色" fill="#FFFFFF">
            <g id="_编组-14备份-2" transform="translate(247.2404, 6.75)" fill-rule="nonzero">
                <g id="_编组-7" transform="translate(-0, 0)">
                    <g id="_路径备份-3" transform="translate(0, 0)">
                        <polygon id="路径" points="0 15.35 18.32 15.35 60.32 15.35 60.32 0 0 0"></polygon>
                    </g>
                    <g id="_路径备份-2" transform="translate(0, 31.8)">
                        <path d="M0,58.29 L18.31,58.29 L18.31,23.35 C18.31,18.93 21.89,15.35 26.31,15.35 L60.32,15.35 L60.32,-7.10542736e-15 L18.31,-7.10542736e-15 C8.2,-7.10542736e-15 0,8.2 0,18.31 L0,58.29 L0,58.29 Z" id="路径"></path>
                    </g>
                </g>
                <g id="_路径备份-5" transform="translate(70.32, 0)">
                    <polygon id="路径" points="17.87 0 0 0 0 90 17.87 90"></polygon>
                </g>
                <g id="_编组-6" transform="translate(243.19, 0)">
                    <g id="_椭圆形">
                        <path d="M45,90 C20.19,90 0,69.81 0,45 C0,20.19 20.19,0 45,0 C69.81,0 90,20.19 90,45 C90,69.81 69.81,90 45,90 Z M45,18 C30.11,18 18,30.11 18,45 C18,59.89 30.11,72 45,72 C59.89,72 72,59.89 72,45 C72,30.11 59.89,18 45,18 Z" id="形状"></path>
                    </g>
                    <g id="_椭圆形-2" transform="translate(30, 30)">
                        <circle id="椭圆形" cx="15" cy="15" r="15"></circle>
                    </g>
                </g>
                <g id="_编组-10" transform="translate(98.19, 24)">
                    <g id="_椭圆形-3">
                        <path d="M29.5,66 C13.23,66 0,51.2 0,33 C0,14.8 13.23,0 29.5,0 C45.77,0 59,14.8 59,33 C59,51.2 45.77,66 29.5,66 Z M29.5,18 C23.27,18 18,24.87 18,33 C18,41.13 23.27,48 29.5,48 C35.73,48 41,41.13 41,33 C41,24.87 35.73,18 29.5,18 Z" id="形状"></path>
                    </g>
                    <g id="_路径备份-6" transform="translate(46, 0)">
                        <polygon id="路径" points="13 0 0 0 0 66 13 66"></polygon>
                    </g>
                </g>
                <g id="_编组-13" transform="translate(167.19, 10)">
                    <g id="_椭圆形-4" transform="translate(0, 14)">
                        <path d="M33,66 C14.8,66 0,51.2 0,33 C0,14.8 14.8,0 33,0 C51.2,0 66,14.8 66,33 C66,51.2 51.2,66 33,66 Z M33,18 C24.73,18 18,24.73 18,33 C18,41.27 24.73,48 33,48 C41.27,48 48,41.27 48,33 C48,24.73 41.27,18 33,18 Z" id="形状"></path>
                    </g>
                    <g id="_椭圆形-5" transform="translate(46.19, 0)">
                        <circle id="椭圆形" cx="9" cy="9" r="9"></circle>
                    </g>
                    <g id="_路径" transform="translate(3.8, 84.14)">
                        <path d="M29.7,25.01 C18.94,25.01 8.19,20.92 0,12.73 L12.73,-1.42108547e-14 C22.09,9.36 37.31,9.36 46.67,-1.42108547e-14 L59.4,12.73 C51.21,20.92 40.46,25.01 29.7,25.01 L29.7,25.01 Z" id="路径"></path>
                    </g>
                </g>
                <g id="_编组-8" transform="translate(339.19, 0)">
                    <g id="_路径-2" transform="translate(0, -0)">
                        <path d="M26.47,52.98 C11.87,52.98 0,41.1 0,26.49 C0,11.88 11.88,3.55271368e-15 26.47,3.55271368e-15 L59.47,3.55271368e-15 L59.47,16 L26.47,16 C20.7,16 16,20.71 16,26.49 C16,32.27 20.7,36.98 26.47,36.98 L26.47,52.98 Z" id="路径"></path>
                    </g>
                    <g id="_路径备份-4" transform="translate(8, 37.02)">
                        <path d="M33,52.98 L0,52.98 L0,36.98 L33,36.98 C38.77,36.98 43.47,32.27 43.47,26.49 C43.47,20.71 38.77,16 33,16 L18,16 L18,-7.10542736e-15 L33,-7.10542736e-15 C47.6,-7.10542736e-15 59.47,11.88 59.47,26.49 C59.47,41.1 47.59,52.98 33,52.98 Z" id="路径"></path>
                    </g>
                </g>
            </g>
            <g id="_编组-4备份" transform="translate(121.5006, 0)" fill-rule="nonzero">
                <g id="_形状结合" transform="translate(0, 6.75)">
                    <path d="M90.9398268,57.23 C94.2498268,57.23 96.9398268,59.92 96.9398268,63.23 L96.9398268,85 C96.9398268,92.73 90.6698268,99 82.9398268,99 L19.8998268,99 C12.1698268,99 5.89982681,92.73 5.89982681,85 L5.89982681,63.23 C5.89982681,59.92 8.58982681,57.23 11.8998268,57.23 L90.9398268,57.23 Z M84.4798268,85.62 L84.4798268,72.91 C84.4798268,72.91 84.4998268,72.91 84.4998268,72.91 L84.4998268,68.53 L18.3298268,68.53 C18.3298268,68.53 18.3298268,72.91 18.3298268,72.91 L18.3298268,72.91 C18.3298268,72.91 18.3298268,85.62 18.3298268,85.62 L84.4698268,85.62 L84.4798268,85.62 Z M33.9598268,12.83 L33.9598268,21.05 L45.1698268,21.05 C48.5598268,21.05 51.3098268,23.8 51.3098268,27.19 C51.3098268,30.58 48.5598268,33.33 45.1698268,33.33 L36.3598268,33.33 C37.7398268,34.86 40.0198268,38.05 47.9698268,39.58 C55.9198268,41.12 57.3598268,51.38 47.9698268,52.84 C37.7898268,52.23 32.8798268,47.97 28.3598268,43.48 L27.8898268,43.01 C27.7298268,42.85 27.5698268,42.69 27.4198268,42.54 C22.0398268,47.44 17.8798268,51 5.94982681,52.9 C-0.380173187,53.72 -3.44017319,39.93 5.94982681,39.64 C15.3398268,39.35 17.5998268,34.94 19.1298268,33.33 L9.55982681,33.33 C6.16982681,33.33 3.41982681,30.58 3.41982681,27.19 C3.41982681,23.8 6.16982681,21.05 9.55982681,21.05 L21.5298268,21.05 L21.5298268,12.83 L33.9698268,12.83 L33.9598268,12.83 Z M93.9898268,0 C97.2998268,0 99.9898268,2.69 99.9898268,6 L99.9898268,38.3 C99.9898268,45.48 94.1698268,51.3 86.9898268,51.3 L73.9298268,51.3 C66.7498268,51.3 60.9298268,45.48 60.9298268,38.3 L60.9298268,6 C60.9298268,2.69 63.6198268,0 66.9298268,0 L93.9898268,0 Z M87.5498268,13.37 L73.3698268,13.37 C73.3698268,13.37 73.3698268,34.93 73.3698268,34.93 C73.3698268,36.59 74.7098268,37.93 76.3698268,37.93 L84.5498268,37.93 C86.2098268,37.93 87.5498268,36.59 87.5498268,34.93 L87.5498268,13.37 Z" id="形状"></path>
                </g>
                <g id="_路径-3" transform="translate(3.2398, 0)">
                    <path d="M40.75,19.5 L13.53,19.5 C6.07,19.5 0,13.33 0,5.75 C0,2.57 2.57,0 5.75,0 C8.93,0 11.5,2.57 11.5,5.75 C11.5,6.99 12.41,8 13.53,8 L40.75,8 C43.93,8 46.5,10.57 46.5,13.75 C46.5,16.93 43.93,19.5 40.75,19.5 Z" id="路径"></path>
                </g>
                <g id="_路径备份-8" transform="translate(23.9898, 79.09)">
                    <path d="M5,10 L48,10 C50.76,10 53,7.76 53,5 C53,2.24 50.76,0 48,0 L5,0 C2.24,0 0,2.24 0,5 C0,7.76 2.24,10 5,10 Z" id="路径"></path>
                </g>
            </g>
            <g id="_编组-5" transform="translate(0, 7.24)">
                <g id="_矩形" transform="translate(0, 31.3896)">
                    <path d="M37.70039,0.830389974 C41.17039,2.68038997 42.49039,6.99038997 40.65039,10.47039 L13.40039,61.84039 C11.56039,65.31039 7.26038997,66.63039 3.79038997,64.79039 C3.79038997,64.79039 3.79038997,64.79039 3.78038997,64.79039 C0.310389974,62.94039 -1.00961003,58.63039 0.830389974,55.15039 L28.08039,3.78038997 C29.92039,0.310389974 34.22039,-1.00961003 37.69039,0.830389974 C37.69039,0.830389974 37.69039,0.830389974 37.70039,0.830389974 Z" id="路径"></path>
                </g>
                <g id="_矩形备份-4" transform="translate(19.9204, 0)">
                    <path d="M65.41,7.13 C65.41,11.07 62.22,14.26 58.28,14.26 L7.13,14.26 C3.19,14.26 0,11.07 0,7.13 C0,3.19 3.19,-8.8817842e-16 7.13,-8.8817842e-16 L58.28,-8.8817842e-16 C62.22,-8.8817842e-16 65.41,3.19 65.41,7.13 Z" id="路径"></path>
                </g>
                <g id="_矩形备份-3" transform="translate(3.28, 0.0296)">
                    <path d="M26.39039,0.830389974 C29.86039,2.68038997 31.18039,6.99038997 29.34039,10.47039 L13.40039,40.52039 C11.56039,43.99039 7.26038997,45.31039 3.79038997,43.47039 C3.79038997,43.47039 3.79038997,43.47039 3.78038997,43.47039 C0.310389974,41.62039 -1.00961003,37.31039 0.830389974,33.83039 L16.77039,3.78038997 C18.61039,0.310389974 22.91039,-1.00961003 26.38039,0.830389974 C26.38039,0.830389974 26.38039,0.830389974 26.39039,0.830389974 L26.39039,0.830389974 Z" id="路径"></path>
                </g>
                <g id="_矩形备份-6" transform="translate(71.16, 0.0296)">
                    <path d="M3.78038997,0.830389974 C0.310389974,2.68038997 -1.00961003,6.99038997 0.830389974,10.47039 L16.77039,40.52039 C18.61039,43.99039 22.91039,45.31039 26.38039,43.47039 C26.38039,43.47039 26.38039,43.47039 26.39039,43.47039 C29.86039,41.62039 31.18039,37.31039 29.34039,33.83039 L13.40039,3.78038997 C11.56039,0.310389974 7.26038997,-1.00961003 3.79038997,0.830389974 C3.79038997,0.830389974 3.79038997,0.830389974 3.78038997,0.830389974 Z" id="路径"></path>
                </g>
                <g id="_矩形备份-2" transform="translate(80.46, 63.3596)">
                    <path d="M3.78038997,0.830389974 C0.310389974,2.68038997 -1.00961003,6.99038997 0.830389974,10.47039 L11.12039,29.86039 C12.96039,33.33039 17.26039,34.65039 20.73039,32.81039 L20.74039,32.81039 C24.21039,30.95039 25.53039,26.64039 23.69039,23.17039 L13.40039,3.78038997 C11.56039,0.310389974 7.26038997,-1.00961003 3.79038997,0.830389974 L3.78038997,0.830389974 Z" id="路径"></path>
                </g>
                <g id="_路径-7" transform="translate(20.2589, 44.621)" fill-rule="nonzero">
                    <path d="M29.7014933,51.7289694 C28.8214933,51.7289694 27.9314933,51.6389694 27.0514933,51.4689694 C23.5114933,50.7689694 20.4614933,48.7289694 18.4514933,45.7389694 L1.10149326,19.8389694 C-0.898506744,16.8589694 -0.0985067438,12.8189694 2.88149326,10.8189694 C5.86149326,8.81896935 9.90149326,9.61896935 11.9014933,12.5989694 L29.2514933,38.4989694 C29.2514933,38.4989694 29.3714933,38.6689694 29.5714933,38.7089694 C29.7714933,38.7489694 29.9014933,38.6589694 29.9414933,38.6389694 C30.0014933,38.5989694 30.0614933,38.5389694 30.0914933,38.4789694 L50.9914933,3.18896935 C52.8214933,0.0989693525 56.8114933,-0.921030648 59.8914933,0.908969352 C62.9814933,2.73896935 64.0014933,6.72896935 62.1714933,9.80896935 L41.2714933,45.0989694 C40.2514933,46.8189694 38.8314933,48.3189694 37.1714933,49.4389694 C34.9214933,50.9389694 32.3414933,51.7289694 29.6914933,51.7289694 L29.7014933,51.7289694 Z" id="路径"></path>
                </g>
            </g>
        </g>
    </g>
</svg>