<?xml version="1.0" encoding="UTF-8"?>
<svg width="80px" height="80px" viewBox="0 0 80 80" version="1.1" xmlns="http://www.w3.org/2000/svg" xmlns:xlink="http://www.w3.org/1999/xlink">
    <title>浏览器logo</title>
    <g id="页面-1" stroke="none" stroke-width="1" fill="none" fill-rule="evenodd">
        <g id="浏览器logo">
            <rect id="矩形" fill="#FFFFFF" opacity="0" x="0" y="0" width="80" height="80"></rect>
            <g id="黑色备份-2" transform="translate(2, 29)" fill="#000000" fill-rule="nonzero">
                <g id="_编组-14备份-2">
                    <g id="_编组-7">
                        <g id="_路径备份-3">
                            <polygon id="路径" points="0 2.86873555 3.42379383 2.86873555 11.2731028 2.86873555 11.2731028 0 0 0"></polygon>
                        </g>
                        <g id="_路径备份-2" transform="translate(0, 5.943)">
                            <path d="M0,10.8937196 L3.42192495,10.8937196 L3.42192495,4.36384203 C3.42192495,3.5377957 4.0909851,2.86873555 4.91703143,2.86873555 L11.2731028,2.86873555 L11.2731028,0 L3.42192495,0 C1.53248414,0 0,1.53248414 0,3.42192495 L0,10.8937196 L0,10.8937196 Z" id="路径"></path>
                        </g>
                    </g>
                    <g id="_路径备份-5" transform="translate(13.142, 0)">
                        <polygon id="路径" points="3.33969409 0 0 0 0 16.8199479 3.33969409 16.8199479"></polygon>
                    </g>
                    <g id="_编组-6" transform="translate(45.4494, 0)">
                        <g id="_椭圆形">
                            <path d="M8.40997393,16.8199479 C3.77327497,16.8199479 0,13.0466729 0,8.40997393 C0,3.77327497 3.77327497,0 8.40997393,0 C13.0466729,0 16.8199479,3.77327497 16.8199479,8.40997393 C16.8199479,13.0466729 13.0466729,16.8199479 8.40997393,16.8199479 Z M8.40997393,3.36398957 C5.627207,3.36398957 3.36398957,5.627207 3.36398957,8.40997393 C3.36398957,11.1927409 5.627207,13.4559583 8.40997393,13.4559583 C11.1927409,13.4559583 13.4559583,11.1927409 13.4559583,8.40997393 C13.4559583,5.627207 11.1927409,3.36398957 8.40997393,3.36398957 Z" id="形状"></path>
                        </g>
                        <g id="_椭圆形-2" transform="translate(5.6066, 5.6066)">
                            <circle id="椭圆形" cx="2.80332464" cy="2.80332464" r="2.80332464"></circle>
                        </g>
                    </g>
                    <g id="_编组-10" transform="translate(18.3506, 4.4853)">
                        <g id="_椭圆形-3">
                            <path d="M5.51320513,12.3346284 C2.47253234,12.3346284 0,9.56868145 0,6.16731422 C0,2.76594698 2.47253234,0 5.51320513,0 C8.55387793,0 11.0264103,2.76594698 11.0264103,6.16731422 C11.0264103,9.56868145 8.55387793,12.3346284 5.51320513,12.3346284 Z M5.51320513,3.36398957 C4.34889097,3.36398957 3.36398957,4.64791226 3.36398957,6.16731422 C3.36398957,7.68671618 4.34889097,8.97063886 5.51320513,8.97063886 C6.6775193,8.97063886 7.6624207,7.68671618 7.6624207,6.16731422 C7.6624207,4.64791226 6.6775193,3.36398957 5.51320513,3.36398957 Z" id="形状"></path>
                        </g>
                        <g id="_路径备份-6" transform="translate(8.5969, 0)">
                            <polygon id="路径" points="2.42954803 0 0 0 0 12.3346284 2.42954803 12.3346284"></polygon>
                        </g>
                    </g>
                    <g id="_编组-13" transform="translate(31.2459, 1.8689)">
                        <g id="_椭圆形-4" transform="translate(0, 2.6164)">
                            <path d="M6.16731422,12.3346284 C2.76594698,12.3346284 0,9.56868145 0,6.16731422 C0,2.76594698 2.76594698,0 6.16731422,0 C9.56868145,0 12.3346284,2.76594698 12.3346284,6.16731422 C12.3346284,9.56868145 9.56868145,12.3346284 6.16731422,12.3346284 Z M6.16731422,3.36398957 C4.6217479,3.36398957 3.36398957,4.6217479 3.36398957,6.16731422 C3.36398957,7.71288054 4.6217479,8.97063886 6.16731422,8.97063886 C7.71288054,8.97063886 8.97063886,7.71288054 8.97063886,6.16731422 C8.97063886,4.6217479 7.71288054,3.36398957 6.16731422,3.36398957 Z" id="形状"></path>
                        </g>
                        <g id="_椭圆形-5" transform="translate(8.6324, 0)">
                            <circle id="椭圆形" cx="1.68199479" cy="1.68199479" r="1.68199479"></circle>
                        </g>
                        <g id="_路径" transform="translate(0.7102, 15.7248)">
                            <path d="M5.5505828,4.67407662 C3.53966458,4.67407662 1.53061526,3.90970344 0,2.37908818 L2.37908818,0 C4.12836276,1.74927458 6.97280283,1.74927458 8.72207741,0 L11.1011656,2.37908818 C9.57055034,3.90970344 7.56150101,4.67407662 5.5505828,4.67407662 L5.5505828,4.67407662 Z" id="路径"></path>
                        </g>
                    </g>
                    <g id="_编组-8" transform="translate(63.3906, 0)">
                        <g id="_路径-2">
                            <path d="M4.94693356,9.90134264 C2.21836424,9.90134264 0,7.68110953 0,4.95067132 C0,2.22023312 2.22023312,0 4.94693356,0 L11.1142478,0 L11.1142478,2.99021295 L4.94693356,2.99021295 C3.86858801,2.99021295 2.99021295,3.87045689 2.99021295,4.95067132 C2.99021295,6.03088575 3.86858801,6.91112969 4.94693356,6.91112969 L4.94693356,9.90134264 Z" id="路径"></path>
                        </g>
                        <g id="_路径备份-4" transform="translate(1.4951, 6.9186)">
                            <path d="M6.16731422,9.90134264 L0,9.90134264 L0,6.91112969 L6.16731422,6.91112969 C7.24565976,6.91112969 8.12403482,6.03088575 8.12403482,4.95067132 C8.12403482,3.87045689 7.24565976,2.99021295 6.16731422,2.99021295 L3.36398957,2.99021295 L3.36398957,0 L6.16731422,0 C8.89588354,0 11.1142478,2.22023312 11.1142478,4.95067132 C11.1142478,7.68110953 8.89401466,9.90134264 6.16731422,9.90134264 Z" id="路径"></path>
                        </g>
                    </g>
                </g>
            </g>
        </g>
    </g>
</svg>